<svg xmlns="http://www.w3.org/2000/svg" aria-hidden="true" style="position:absolute;width:0;height:0;overflow:hidden">
  <defs>
    <symbol id="diagram" fill="none" viewBox="0 0 64 64">
      <g fill="var(--color1, #4d5ae5)" clip-path="url(#clip0_1004689_1305)">
        <path d="M29.851 29.9292h2.1323v9.595H29.851zm8.5289 4.2644h2.1322v5.3306h-2.1322zM21.3222 37.392h2.1322v2.1322h-2.1322zm-6.3967-1.0662h2.1322v3.1983h-2.1322z"/>
        <path fill="var(--color0, #2e2f42)" d="M3.1983 56.5819h51.1732c1.7663 0 3.1984-1.432 3.1984-3.1983v-4.2644c0-1.7663-1.4321-3.1983-3.1984-3.1983h-1.0661V19.3343l6.0557-5.7366c1.4055.6928 3.1067.2722 4.0265-.9974.9204-1.2691.7913-3.0167-.305-4.1369-1.0963-1.1203-2.8402-1.2874-4.1296-.3956-1.2889.8922-1.747 2.5835-1.0849 4.0041l-4.5627 4.3254v-2.4597c0-1.7663-1.432-3.1983-3.1983-3.1983H7.4628c-1.7663 0-3.1984 1.432-3.1984 3.1983v31.9833H3.1983C1.4321 45.9209 0 47.3529 0 49.1192v4.2644c0 1.7663 1.4321 3.1983 3.1983 3.1983M60.7682 9.6732c.5887 0 1.0661.4773 1.0661 1.0661s-.4774 1.0661-1.0661 1.0661-1.0661-.4774-1.0661-1.0661.4773-1.0661 1.0661-1.0661M6.3967 13.9376c0-.5887.4773-1.0661 1.0661-1.0661h42.6443c.5887 0 1.0661.4774 1.0661 1.0661v4.4773L49.041 20.441v-4.3712c0-.5887-.4774-1.0661-1.0661-1.0661H9.595c-.5888 0-1.0661.4774-1.0661 1.0661v26.6527c0 .5888.4773 1.0661 1.0661 1.0661h38.3799c.5887 0 1.0661-.4773 1.0661-1.0661V23.3738l2.1322-2.0203v24.5674H6.3967zm9.5949 13.8594c-1.4424-.0041-2.709.9568-3.0926 2.3472-.3837 1.3904.2103 2.8652 1.4508 3.6013 1.24.736 2.8199.5512 3.8563-.4519l3.7059 1.8595a1.066 1.066 0 0 0 1.2727-.2452l7.8777-8.8626 7.7438 5.8027c.4154.3113.9954.278 1.3722-.0786l6.7304-6.3753v16.2623H10.6611V17.1359h36.2477v5.3207l-7.543 7.1431-7.8089-5.8542a1.067 1.067 0 0 0-1.4362.1442l-7.9859 8.9854-2.9855-1.493a3 3 0 0 0 .0407-.3868c0-1.7662-1.4321-3.1983-3.1984-3.1983m1.0661 3.1983c0 .5888-.4773 1.0662-1.0661 1.0662s-1.0661-.4774-1.0661-1.0662.4774-1.0661 1.0661-1.0661 1.0661.4774 1.0661 1.0661m6.3967 17.0578h10.6611v1.0661c0 .5887-.4774 1.0661-1.0661 1.0661h-8.5289c-.5888 0-1.0661-.4774-1.0661-1.0661zM2.1322 49.1192c0-.5888.4774-1.0661 1.0661-1.0661h18.1239v1.0661c0 1.7663 1.432 3.1983 3.1983 3.1983h8.5289c1.7662 0 3.1983-1.432 3.1983-3.1983v-1.0661h18.1238c.5888 0 1.0661.4773 1.0661 1.0661v4.2644c0 .5888-.4773 1.0661-1.0661 1.0661H3.1983c-.5887 0-1.0661-.4773-1.0661-1.0661z"/>
      </g>
      <defs>
        <clipPath id="clip0_1004689_1305">
          <path fill="#fff" d="M0 0h64v64H0z"/>
        </clipPath>
      </defs>
    </symbol>
    <symbol id="clock" fill="var(--color1, #4d5ae5)" viewBox="0 0 64 64">
      <path fill="var(--color0, #2e2f42)" d="M62.5933 30.6025C62.5899 13.6978 48.8828-.0034 31.9775 0 15.0728.0034 1.3716 13.7109 1.375 30.6157c.0029 13.3159 8.6138 25.1021 21.2988 29.1524a1.23 1.23 0 0 0 .3736.0571 1.35 1.35 0 0 0 .685-.1875c.27-.1597.4717-.4136.5664-.7129l7.73-24.5c2.1133-.0107 3.8174-1.7329 3.8062-3.8457-.0108-2.1133-1.7325-3.8174-3.8457-3.8066a3.774 3.774 0 0 0-1.6402.3828L20.1372 16.9419c-.5068-.4893-1.314-.4751-1.8032.0312-.4776.4947-.4776 1.2779 0 1.7725l10.2065 10.2183c-.7832 1.5986-.3354 3.5283 1.0728 4.6181L22.248 56.9277C7.6924 51.5659.2393 35.4199 5.6011 20.8643S27.1089-1.1445 41.6646 4.2173s22.0087 21.5083 16.6469 36.0635a28.087 28.087 0 0 1-14.9243 15.9467l-.7959-3.7485c-.1455-.689-.8227-1.1294-1.5117-.9834a1.28 1.28 0 0 0-.585.2964l-7.6738 6.8511c-.5264.4682-.5732 1.2744-.1045 1.8008.1524.1709.3477.2978.5664.3676l9.7974 3.127c.6704.2153 1.3887-.1533 1.604-.8242a1.277 1.277 0 0 0 .0337-.6553l-.7822-3.6782c11.3286-4.7759 18.684-15.8843 18.6577-28.1783m-30.6089-1.2753c.7041 0 1.2754.5712 1.2754 1.2753 0 .7046-.5713 1.2754-1.2754 1.2754-.7046 0-1.2754-.5708-1.2754-1.2754 0-.7041.5708-1.2753 1.2754-1.2753m4.2007 29.728 4.3681-3.8965 1.2056 5.6807z"/>
      <path d="M30.709 6.3701v2.5508c0 .7046.5708 1.2754 1.2754 1.2754.7041 0 1.2754-.5708 1.2754-1.2754V6.3701c0-.7041-.5713-1.2754-1.2754-1.2754-.7046 0-1.2754.5713-1.2754 1.2754M7.752 29.3271c-.7046 0-1.2754.5713-1.2754 1.2754 0 .7046.5708 1.2754 1.2753 1.2754h2.5508c.7046 0 1.2754-.5708 1.2754-1.2754 0-.7041-.5708-1.2754-1.2754-1.2754zm48.4642 2.5508c.7046 0 1.2754-.5708 1.2754-1.2754 0-.7041-.5708-1.2754-1.2754-1.2754h-2.5507c-.7041 0-1.2754.5713-1.2754 1.2754 0 .7046.5713 1.2754 1.2754 1.2754z"/>
    </symbol>
    <symbol id="astronaut" fill="var(--color1, #4d5ae5)" viewBox="0 0 64 64">
      <path d="M63.9481 9.0481a1.068 1.068 0 0 0-.8608-.7254l-3.8208-.5557-1.7099-3.4624c-.3583-.7297-1.5541-.7297-1.9125-.0001L53.9342 7.767l-3.8209.5559a1.069 1.069 0 0 0-.8619.7253c-.1248.3862-.0214.8107.2699 1.0934l2.7659 2.6956-.6528 3.8059c-.0682.4.096.8043.4235 1.0433a1.062 1.062 0 0 0 1.1243.081l3.4177-1.7974 3.4177 1.7974c.1557.0821.3275.1226.4971.1226.2207 0 .4416-.0682.6272-.2037a1.065 1.065 0 0 0 .4235-1.0433l-.6527-3.8059 2.7659-2.6956a1.07 1.07 0 0 0 .2695-1.0934m-4.9258 2.6539a1.067 1.067 0 0 0-.3061.9441l.3818 2.2282-2.001-1.0517c-.1557-.0822-.3264-.1227-.4971-.1227s-.3403.0405-.4972.1227l-2.0011 1.0517.3819-2.2282a1.068 1.068 0 0 0-.3062-.9441l-1.6202-1.5786 2.2379-.3254a1.066 1.066 0 0 0 .8032-.5835l1.0006-2.0266 1.0005 2.0266c.1557.3146.4555.5334.8032.5835l2.2379.3254zm-6.7554 29.3424h-2.1334v2.1334h2.1334zm0 4.2668h-2.1334v2.1334h2.1334zm2.1334-2.1334h-2.1334v2.1334h2.1334zm-4.2666 0h-2.1334v2.1334h2.1334zm-5.3335 9.6002h-2.1334v2.1333h2.1334zm0 4.2666h-2.1334v2.1335h2.1334zm2.1334-2.1333h-2.1334v2.1335h2.1334z"/>
      <path d="M42.6668 54.9113h-2.1334v2.1335h2.1334zM32 48.5113h-2.1334v2.1334H32zm0 4.2667h-2.1334v2.1333H32zm2.1334-2.1335H32v2.1334h2.1334zm-4.2668 0h-2.1334v2.1334h2.1334zM11.733 12.2439H9.5996v2.1334h2.1334zm0 4.2669H9.5996v2.1334h2.1334zm2.1333-2.1334h-2.1334v2.1334h2.1334zm-4.2667 0H7.4662v2.1334h2.1334z"/>
      <path fill="var(--color0, #2e2f42)" d="M49.4295 28.3189c-.5749-.7755-1.4186-1.2746-2.3765-1.4091-.9621-.1365-1.9115.1162-2.6796.704l-2.5035 1.9189-.0011.0011-3.7953 2.8342-2.7158-1.0816c4.8427-2.1728 8.2274-7.0166 8.2274-12.6402 0-7.646-6.2455-13.8669-13.9224-13.8669s-13.9222 6.2209-13.9222 13.8669c0 2.7713.8288 5.3483 2.24 7.5168l-5.5276-.048h-.0096c-.0171 0-.0309.0085-.0469.0097a1.04 1.04 0 0 0-.3103.0618c-.0257.0097-.0523.015-.0768.0267-.0127.0053-.0256.0063-.0384.0127l-6.4662 3.1926c-.0011 0-.0021 0-.0021.001l-3.7868 1.821a.8.8 0 0 0-.1259.0704C.0805 32.3156-.4336 34.289.3931 35.9018c.4405.8576 1.1904 1.4892 2.1121 1.7782a3.62 3.62 0 0 0 1.0784.1653c.5792 0 1.1531-.1418 1.6789-.4223l2.7755-1.4763 4.5281-2.3382 2.7136-.016L4.3963 44.4237c-.001.0011-.0021.0011-.0032.0021l-2.6775 2.6667c-.6325.6294-.9802 1.4645-.9802 2.3553 0 .8896.3477 1.7269.9802 2.3574.6497.6464 1.5041.9706 2.3585.9706.8555 0 1.7087-.3242 2.3605-.9706l2.6283-2.6177 3.4817-2.5995 1.8016 1.7941-3.5233 3.5083c-.001.0012-.0021.0012-.0032.0022l-2.6775 2.6666c-.6325.6294-.9802 1.4645-.9802 2.3553 0 .8896.3477 1.7269.9802 2.3574.6497.6464 1.5052.9707 2.3596.9707s1.7099-.3243 2.3605-.9707l2.6784-2.6667 4.2849-4.2666c.0011-.0012.0011-.0022.0021-.0033l2.0193-2-.0075-.0075c.0127-.0128.0308-.0172.0437-.0309l10.3319-11.3164 6.942.9877c.0501.0075.1003.0107.1504.0107.1291 0 .2539-.0309.3744-.0768.0352-.0127.0661-.0299.0992-.0469.0384-.0192.0789-.0298.1153-.0543l6.4267-4.2667c.0235-.016.0363-.0417.0586-.0587.0257-.0202.0577-.0287.081-.0512l2.5429-2.3819c1.3232-1.2398 1.5056-3.2707.4239-4.7235M4.2608 35.5403c-.3466.1856-.7402.2229-1.1168.1035-.3733-.1163-.6762-.3713-.8533-.7158-.3222-.6272-.1355-1.391.4287-1.8037l2.6273-1.2641.6325 1.8486.2656.7765zm6.9943-3.6554-3.0966 1.6-.5109-1.4934-.3669-1.0731 4.0535-2.0012zM41.4539 18.644c0 1.8368-.4384 3.5692-1.1979 5.119l-8.3627-3.7984c-.0876-1.1467-.6827-2.1504-1.5766-2.7756l2.9281-9.7206c4.7553 1.5126 8.2091 5.9489 8.2091 11.1756m-23.5779 0c0-6.4694 5.2886-11.7335 11.789-11.7335.5056 0 1.0005.0426 1.4901.1045l-2.864 9.5074c-.0384-.0011-.0747-.0118-.1142-.0118-2.0651 0-3.7451 1.6747-3.7451 3.7335 0 2.0586 1.68 3.7334 3.7451 3.7334 1.3888 0 2.5888-.7669 3.2363-1.8892l7.7249 3.5095c-2.1494 2.8928-5.5894 4.7798-9.4733 4.7798-6.5002 0-11.7888-5.2641-11.7888-11.7336m11.9127 1.6001c0 .8821-.7232 1.6-1.6118 1.6s-1.6117-.7179-1.6117-1.6.7232-1.6001 1.6117-1.6001 1.6118.7179 1.6118 1.6001M4.9297 50.2925c-.4725.4683-1.2374.4673-1.7088.0011-.2272-.2272-.352-.5268-.352-.8458 0-.3179.1248-.6177.352-.8427l1.9242-1.9169 1.7024 1.695zm6.4277 7.4669c-.4725.4682-1.2384.4694-1.7099.0011-.2272-.2272-.352-.5269-.352-.8459 0-.3179.1248-.6176.352-.8426l1.9254-1.9179.8054.8011.8982.8939zm6.9634-6.9377c-.0011.001-.0021.001-.0033.0021l-3.5296 3.52-.8054-.8011-.8982-.8939 3.5265-3.5104v-.001c.0011-.0011.0021-.0011.0032-.0021.08-.08.1301-.176.1793-.2709.0138-.0278.0405-.0513.0522-.08.0331-.0821.0384-.1706.0513-.2572.0063-.0491.0277-.0948.0277-.1451 0-.0715-.0256-.1407-.0405-.2112-.0127-.064-.0127-.1292-.0374-.1909-.0405-.1003-.1098-.1888-.1823-.2753-.0203-.0235-.0278-.0533-.0502-.0757h-.0011c-.0011-.001-.0011-.0033-.0021-.0043l-3.2139-3.2c-.0342-.0341-.0779-.048-.1163-.0768-.0565-.0437-.1109-.0842-.1739-.1152-.0607-.0299-.1226-.048-.1866-.0651-.0682-.0193-.1344-.0342-.2059-.0395-.0651-.0043-.1259.0021-.1909.0096-.0715.0085-.1386.0181-.208.0405-.0672.0214-.1268.0544-.1887.0896-.0395.0224-.0843.0299-.1216.0576L8.4584 46.973l-1.8017-1.7942 4.798-4.7723 8.7212 8.5773zm13.6376-14.0334c-.0309-.0042-.0598.0075-.0906.0054a1.04 1.04 0 0 0-.2304.0139c-.0608.0106-.1184.0223-.176.0426-.0683.0235-.1302.0555-.1932.0939a1.02 1.02 0 0 0-.1663.1226c-.0257.0224-.0565.0331-.08.0586l-9.3966 10.2914-8.6561-8.5132 5.6662-5.6364c.4171-.416.4193-1.0912.0033-1.5094a1.068 1.068 0 0 0-.7627-.3125v-.001l-4.4374.0267.0555-3.215 6.2081.0534c2.5302 2.5878 6.0587 4.2017 9.9628 4.2017.8746 0 1.728-.0906 2.5589-.2454.08.064.1589.1292.2592.1697l4.8194 1.92.305 1.5168.3562 1.7706zm8.0822.3563-.6261-3.1158 2.8928-2.1601.7574 1.0048 1.136 1.5083zm7.5073-5.662-1.6758 1.5702-1.8624-2.4726 1.6629-1.2746c.3104-.2389.7019-.336 1.0859-.2859.3861.0544.7275.256.96.5685a1.4283 1.4283 0 0 1-.1706 1.8944"/>
      <path fill="var(--color0, #2e2f42)" d="m27.2042 37.0881-4.286-4.2667c-.4149-.4149-1.0891-.4149-1.5051 0l-4.2848 4.2667a1.072 1.072 0 0 0-.3137.7562c0 .2838.112.5558.3137.7563l4.2848 4.2667c.208.2069.4811.3104.7531.3104s.545-.1035.752-.3104l4.286-4.2667a1.07 1.07 0 0 0 .3146-.7563c0-.2837-.1131-.5557-.3146-.7562m-5.038 3.5179-2.7734-2.7617 2.7734-2.7616 2.7744 2.7616zm12.1623-30.4645-.5152 2.0716c.1419.0352 3.4753.9035 3.4753 4.2977h2.1334c-.0001-4.0343-3.3313-5.9309-5.0935-6.3693m5.0935 8.5025h-2.1334v2.1335h2.1334z"/>
    </symbol>
    <symbol id="antenna" fill="none" viewBox="0 0 64 64">
      <path fill="var(--color0, #2e2f42)" d="M61.5463 44.1952 44.6599 27.1851l1.8741-9.231a4.26 4.26 0 0 0 1.5168.2912h.0128c2.3846.0282 4.3404-1.882 4.3687-4.2665s-1.882-4.3404-4.2665-4.3687c-2.3846-.0281-4.3404 1.882-4.3687 4.2666a4.32 4.32 0 0 0 .2495 1.4982l-9.92 1.2107L17.9452.32a1.067 1.067 0 0 0-.7531-.32 1.066 1.066 0 0 0-.7466.3104l-3.0251 3.008c-.4164.4165-.4164 1.0917 0 1.5083l1.6277 1.6512c-6.3061 11.5958-4.2578 25.9556 5.039 35.3258.0853.0816.1842.1476.2922.1952a6.2 6.2 0 0 0-.1045 1.0944v12.3734h-12.8c-2.944.0034-5.3298 2.3893-5.3333 5.3333v2.1333c0 .5891.4776 1.0667 1.0667 1.0667h49.0666c.5891 0 1.0667-.4776 1.0667-1.0667V60.8c-.0035-2.944-2.3893-5.3299-5.3333-5.3333h-12.8v-5.4838a30.06 30.06 0 0 0 6.097.64 29.7 29.7 0 0 0 14.08-3.5669l1.6363 1.6459c.1985.2025.4695.3177.7531.32.28-.0015.5481-.113.7466-.3104l3.0251-3.008c.4164-.4166.4164-1.0918 0-1.5083M46.5596 12.4661c.8354-.8309 2.1862-.8272 3.017.0082s.8272 2.1861-.0082 3.0169a2.133 2.133 0 0 1-1.5049.6208h-.0064c-1.1781-.0061-2.1284-.9661-2.1223-2.1444a2.134 2.134 0 0 1 .629-1.5015zm-2.5109 7.0091-1.1968 5.8912-2.351-2.3648zm-1.2117-1.8037-3.84 3.8176-2.9707-2.9867zM48.0082 57.6c1.7673 0 3.2 1.4327 3.2 3.2v1.0667H4.2748V60.8c0-1.7673 1.4327-3.2 3.2-3.2zm-14.9334-4.2667v2.1334H22.4081v-2.1334zM22.4081 51.2v-8.1067c0-2.5877 2.3926-4.6933 5.3334-4.6933s5.3333 2.1056 5.3333 4.6933V51.2zm12.8001-3.392v-4.7147c0-3.7642-3.3494-6.8266-7.4667-6.8266a7.6 7.6 0 0 0-6.5622 3.5722c-8.1154-8.5476-9.9429-21.2904-4.5572-31.7742l37.2037 37.4169a27.642 27.642 0 0 1-18.6176 2.3264m22.5781-1.3675-1.5029-1.5114L17.1815 5.5915l-1.5094-1.5126 1.5094-1.504 15.8698 15.9595c.0075 0 .0118.0139.0193.0192l26.2293 26.3829z"/>
      <path fill="var(--color1, #4d5ae5)" d="M27.7511 40.5333h-.0096c-1.7673-.0027-3.2021 1.4279-3.2048 3.1952s1.4279 3.2021 3.1952 3.2048h.0096c1.7673.0027 3.2021-1.4279 3.2048-3.1952s-1.4279-3.2021-3.1952-3.2048m.7467 3.9563a1.067 1.067 0 0 1-.7563.3104c-.5891-.0031-1.0641-.4831-1.0611-1.0722a1.068 1.068 0 0 1 .3144-.7508 1.067 1.067 0 0 1 .7467-.3104c.5891.0031 1.0641.4831 1.0611 1.0722a1.068 1.068 0 0 1-.3144.7508z"/>
    </symbol>
    <symbol id="facebook" fill="none" viewBox="0 0 40 40">
      <path fill="var(--color1, #4d5ae5)" d="M40 20c0 5.5228-2.2386 10.5228-5.8579 14.1421S25.5228 40 20 40 9.4772 37.7614 5.8579 34.1421 0 25.5228 0 20 2.2386 9.4772 5.8579 5.8579 14.4772 0 20 0s10.5228 2.2386 14.1421 5.8579S40 14.4772 40 20"/>
      <path fill="var(--color0, #f4f4fd)" d="M22.6647 14.6567h1.4607v-2.544c-.252-.0347-1.1187-.1127-2.128-.1127-2.106 0-3.5487 1.3247-3.5487 3.7593V18h-2.324v2.844h2.324V28h2.8493v-7.1553h2.23l.354-2.844h-2.5846v-1.9594c.0006-.822.222-1.3846 1.3673-1.3846"/>
      <defs>
        <clipPath id="clip0_1031785_410">
          <path fill="#fff" d="M12 12h16v16H12z"/>
        </clipPath>
      </defs>
    </symbol>
    <symbol id="instagram" fill="none" viewBox="0 0 40 40">
      <path fill="var(--color1, #4d5ae5)" d="M40 20c0 5.5228-2.2386 10.5228-5.8579 14.1421S25.5228 40 20 40 9.4772 37.7614 5.8579 34.1421 0 25.5228 0 20 2.2386 9.4772 5.8579 5.8579 14.4772 0 20 0s10.5228 2.2386 14.1421 5.8579S40 14.4772 40 20"/>
      <g fill="var(--color0, #f4f4fd)" clip-path="url(#clip0_1031785_410)">
        <path d="M27.9843 16.704c-.0375-.8501-.175-1.4346-.3719-1.941-.2032-.5376-.5157-1.0189-.9252-1.419a3.94 3.94 0 0 0-1.4159-.922c-.5094-.197-1.0908-.3345-1.941-.3719-.8565-.0407-1.1284-.0501-3.3007-.0501s-2.4442.0094-3.2975.0469c-.8501.0375-1.4346.1751-1.9409.3719-.5377.2031-1.019.5157-1.4191.9252a3.94 3.94 0 0 0-.9221 1.4159c-.1969.5095-.3344 1.0908-.3719 1.941-.0406.8565-.05 1.1284-.05 3.3007s.0094 2.4442.0469 3.2975c.0374.8501.175 1.4346.372 1.941a3.945 3.945 0 0 0 .9251 1.419 3.94 3.94 0 0 0 1.4159.9221c.5095.1969 1.0908.3344 1.9411.3719.8532.0376 1.1252.0469 3.2975.0469s2.4442-.0093 3.2975-.0469c.8501-.0375 1.4346-.175 1.9409-.3719a4.093 4.093 0 0 0 2.3412-2.3411c.1968-.5095.3344-1.0909.3719-1.941.0375-.8533.0469-1.1252.0469-3.2975s-.0032-2.4442-.0407-3.2976m-1.4408 6.5326c-.0345.7814-.1657 1.2033-.2751 1.4846a2.654 2.654 0 0 1-1.5191 1.5191c-.2813.1094-.7063.2407-1.4847.275-.8439.0376-1.097.0469-3.2318.0469s-2.3911-.0093-3.2319-.0469c-.7814-.0343-1.2034-.1656-1.4847-.275-.3469-.1282-.6626-.3313-.9189-.597a2.49 2.49 0 0 1-.597-.9189c-.1094-.2813-.2407-.7064-.275-1.4847-.0376-.8439-.0469-1.0971-.0469-3.2319s.0093-2.3911.0469-3.2318c.0343-.7814.1656-1.2034.275-1.4847.1282-.347.3313-.6626.6002-.919a2.48 2.48 0 0 1 .9189-.5969c.2813-.1094.7064-.2407 1.4846-.2751.8439-.0375 1.0972-.0469 3.2319-.0469 2.1379 0 2.391.0094 3.2319.0469.7814.0344 1.2034.1657 1.4847.2751.3468.128.6626.3312.9189.5969.2656.2594.4688.572.597.919.1094.2813.2406.7063.2751 1.4847.0375.8439.0469 1.097.0469 3.2318s-.0094 2.3849-.0469 3.2288"/>
        <path d="M20.0297 15.8914c-2.2691 0-4.1102 1.8409-4.1102 4.1101s1.8411 4.1102 4.1102 4.1102c2.2692 0 4.1101-1.8409 4.1101-4.1102s-1.8409-4.1101-4.1101-4.1101m0 6.7763c-1.4721 0-2.6662-1.194-2.6662-2.6662s1.1941-2.6661 2.6662-2.6661 2.6661 1.1939 2.6661 2.6661-1.1939 2.6662-2.6661 2.6662m5.2323-6.9388c0 .5299-.4296.9595-.9596.9595s-.9596-.4296-.9596-.9595.4297-.9596.9596-.9596.9596.4296.9596.9596"/>
      </g>
    </symbol>
    <symbol id="linkedin" fill="none" viewBox="0 0 40 40">
      <path fill="var(--color1, #4d5ae5)" d="M40 20c0 5.5228-2.2386 10.5228-5.8579 14.1421S25.5228 40 20 40 9.4772 37.7614 5.8579 34.1421 0 25.5228 0 20 2.2386 9.4772 5.8579 5.8579 14.4772 0 20 0s10.5228 2.2386 14.1421 5.8579S40 14.4772 40 20"/>
      <g fill="var(--color0, #f4f4fd)" clip-path="url(#clip0_1031785_414)">
        <path d="M27.9961 28v-.0006h.004v-5.868c0-2.8707-.618-5.082-3.974-5.082-1.6133 0-2.696.8853-3.138 1.7246h-.0467v-1.4566h-3.182v10.682h3.3134V22.71c0-1.3926.264-2.7393 1.9886-2.7393 1.6994 0 1.7247 1.5893 1.7247 2.8287V28zM12.264 17.318h3.3174V28H12.264zM13.9214 12c-1.0607 0-1.9213.8607-1.9213 1.9213s.8606 1.9394 1.9213 1.9394 1.9213-.8787 1.9213-1.9394C15.8421 12.8607 14.9814 12 13.9214 12"/>
      </g>
      <defs>
        <clipPath id="clip0_1031785_414">
          <path fill="#fff" d="M12.0001 12h16v16h-16z"/>
        </clipPath>
      </defs>
    </symbol>
    <symbol id="twitter" fill="none" viewBox="0 0 40 40">
      <path fill="var(--color1, #4d5ae5)" d="M40 20c0 5.5228-2.2386 10.5228-5.8579 14.1421S25.5228 40 20 40 9.4772 37.7614 5.8579 34.1421 0 25.5228 0 20 2.2386 9.4772 5.8579 5.8579 14.4772 0 20 0s10.5228 2.2386 14.1421 5.8579S40 14.4772 40 20"/>
      <path fill="var(--color0, #f4f4fd)" d="M28 15.039c-.595.261-1.229.434-1.89.518.68-.406 1.199-1.044 1.443-1.813-.634.378-1.334.645-2.08.794-.602-.641-1.46-1.038-2.396-1.038-1.816 0-3.278 1.474-3.278 3.281 0 .26.022.51.076.748-2.727-.133-5.14-1.44-6.761-3.431-.283.491-.449 1.053-.449 1.658 0 1.136.585 2.143 1.457 2.726-.527-.01-1.044-.163-1.482-.404v.036c0 1.594 1.137 2.918 2.628 3.223-.267.073-.558.108-.86.108-.21 0-.422-.012-.621-.056.425 1.299 1.631 2.254 3.065 2.285a6.59 6.59 0 0 1-4.067 1.399c-.269 0-.527-.012-.785-.045 1.453.937 3.175 1.472 5.032 1.472 6.036 0 9.336-5 9.336-9.334 0-.145-.005-.285-.012-.424.651-.462 1.198-1.039 1.644-1.703"/>
    </symbol>
  </defs>
</svg>